<svg width="52" height="61" viewBox="0 0 52 61" fill="none" xmlns="http://www.w3.org/2000/svg">
<path fill-rule="evenodd" clip-rule="evenodd" d="M27.3704 61V45.7729L33.6717 51.7509L45.1241 46.3625V52.5032L27.3704 61ZM24.5371 60.9924L6.8004 52.5032V46.238L18.3831 51.944L24.5371 45.8822V60.9924ZM14.0537 22.0718C15.8642 24.0467 17.6521 26.9874 18.1876 30.1543L9.09823 34.6531L24.5371 42.001V42.1078L17.7909 48.7517L4.7604 42.334L4.75756 42.3365L0.414062 40.0923L6.8004 33.7864L0.414062 28.3955L14.0537 22.0718ZM37.9416 22.1506L51.5104 28.5023L45.1212 33.7838L45.1241 33.7864L51.5104 40.3693L46.9657 42.6263L34.2582 48.6068L27.3704 42.0722V42.0646L42.8319 34.6531L33.8531 30.2103C34.4027 26.8527 35.8222 24.4508 37.9416 22.1506ZM26.7017 35.5833H25.2256C24.8374 35.5833 24.4634 35.4664 24.2084 35.2605L22.2449 34.1015H29.6824L27.7189 35.2605C27.4639 35.4664 27.0927 35.5833 26.7017 35.5833ZM29.7532 32.6172H22.2194C21.7632 32.6172 21.3921 32.2868 21.3921 31.8776C21.3921 31.4684 21.7632 31.1354 22.2194 31.1354H29.7532C30.2094 31.1354 30.5777 31.4684 30.5777 31.8776C30.5777 32.2868 30.2094 32.6172 29.7532 32.6172ZM30.5692 29.6536H21.3581C21.3581 23.7976 16.0484 21.2636 16.0484 15.9718C16.0484 10.4513 21.0011 7.41404 25.9594 7.41404C30.9177 7.41404 35.8817 10.4564 35.8817 15.9718C35.8817 21.2636 30.5692 23.7163 30.5692 29.6536ZM12.8127 16.0964H7.78356V13.5547H12.9431C12.8326 14.1139 12.7731 14.6883 12.7731 15.2729L12.8127 16.0964ZM44.1437 16.0964H39.1486L39.1854 15.2729C39.1854 14.6883 39.1287 14.1139 39.0182 13.5547H44.1437V16.0964ZM15.8161 8.42054C15.1729 9.05087 14.6147 9.74221 14.1614 10.4818L10.0786 7.88171L11.7191 5.81025L15.8161 8.42054ZM36.1311 8.40783L40.2082 5.81025L41.8487 7.88171L37.7914 10.4691C37.3352 9.7295 36.7742 9.03817 36.1311 8.40783ZM21.0946 5.29938C20.1907 5.59167 19.3351 5.96275 18.5417 6.405L16.3516 2.38917L18.8959 1.27083L21.0946 5.29938ZM30.8384 5.28921L33.0314 1.27083L35.5757 2.38917L33.3941 6.38975C32.5979 5.95258 31.7422 5.5815 30.8384 5.28921ZM27.3817 4.59788C26.9199 4.55975 26.4524 4.53942 25.9792 4.53942C25.4947 4.53942 25.0187 4.55975 24.5484 4.60042V0H27.3817V4.59788Z" fill="black"/>
</svg>
